<svg id="Layer_1" data-name="Layer 1" xmlns="http://www.w3.org/2000/svg" viewBox="0 0 32 31.2"><defs><style>.cls-1{fill:#3fbced;}</style></defs><path class="cls-1" d="M0,.4V31.6H32V.4ZM1.33,1.73H30.67V30.26H1.33Zm6.4,6c0-.09.19-.16.3-.16.86,0,2.12-.07,3.44-.07,3.7,0,5.13,2,5.13,4.62,0,3.39-2.45,4.85-5.46,4.85-.52,0-.69,0-1,0v5.13c0,.11,0,.15-.15.15H7.89c-.11,0-.16,0-.16-.15Zm2.37,7.08c.31,0,.55,0,1.08,0,1.56,0,3-.55,3-2.66,0-1.69-1.05-2.55-2.83-2.55-.53,0-1,0-1.28,0ZM21.58,13.2c-1.06,0-1.41.53-1.41,1s.24.81,1.65,1.54c2.09,1,2.75,2,2.75,3.41,0,2.14-1.63,3.28-3.83,3.28A5.79,5.79,0,0,1,18,21.83c-.09,0-.11-.11-.11-.22v-2c0-.13.07-.18.15-.11a5,5,0,0,0,2.69.79c1.05,0,1.49-.43,1.49-1s-.31-.9-1.65-1.61c-1.89-.9-2.68-1.82-2.68-3.37,0-1.71,1.34-3.14,3.67-3.14a6.39,6.39,0,0,1,2.39.37.29.29,0,0,1,.13.26v1.83c0,.11-.06.18-.19.13a4.84,4.84,0,0,0-2.33-.57Z" transform="translate(0 -0.4)"/></svg>