<svg id="Layer_1" data-name="Layer 1" xmlns="http://www.w3.org/2000/svg" viewBox="0 0 28.14 32"><defs><style>.cls-1{fill:#6eb557;}</style></defs><path class="cls-1" d="M20.45,32l9.62-2.08S26.6,6.41,26.57,6.25A.29.29,0,0,0,26.29,6l-2.57-.18S22,4.11,21.8,3.93a.47.47,0,0,0-.16-.1L20.42,32Zm-4.84-16.9a5.73,5.73,0,0,0-2.36-.56c-1.93,0-2,1.2-2,1.52,0,1.64,4.32,2.29,4.32,6.17,0,3.06-1.92,5-4.54,5A6.25,6.25,0,0,1,6.3,25.26l.86-2.78a6.05,6.05,0,0,0,3,1.42,1.26,1.26,0,0,0,1.31-1.24C11.51,20.5,8,20.4,8,16.85c0-3,2.1-5.89,6.44-5.89a5.3,5.3,0,0,1,2.5.48l-1.26,3.62Zm-.71-14a.88.88,0,0,1,.53.19c-1.31.62-2.75,2.18-3.34,5.32-.88.29-1.73.54-2.52.77C10.26,5,11.93,1.12,14.9,1.12ZM16.54,5v.18l-3.19,1c.62-2.37,1.77-3.53,2.78-4A8,8,0,0,1,16.54,5Zm.72-3c.92.1,1.52,1.15,1.9,2.34l-1.54.49V4.55a7.63,7.63,0,0,0-.36-2.49Zm4,1.72-.1,0s-.39.1-1,.28C19.63,2.44,18.62.93,16.85.93h-.16A2.18,2.18,0,0,0,15,0C10.88,0,8.9,5.17,8.28,7.8c-1.59.48-2.75.84-2.88.89-.9.29-.93.32-1,1.16-.1.62-2.44,18.75-2.44,18.75L20,32Z" transform="translate(-1.93 0)"/></svg>