<svg id="Layer_1" data-name="Layer 1" xmlns="http://www.w3.org/2000/svg" viewBox="0 0 32 32"><defs><style>.cls-1{fill:#f0c847;}</style></defs><path class="cls-1" d="M0,0H32V32H0ZM29.38,24.37c-.23-1.46-1.19-2.69-4-3.83-1-.46-2.08-.78-2.4-1.52a1.57,1.57,0,0,1-.06-.94,1.52,1.52,0,0,1,2-.88,2.16,2.16,0,0,1,1.3,1.2c1.38-.9,1.38-.9,2.34-1.5a5.34,5.34,0,0,0-.78-1A4.49,4.49,0,0,0,24,14.48l-.94.12a4.3,4.3,0,0,0-2.28,1.34,4.18,4.18,0,0,0,.76,6c1.82,1.36,4.48,1.66,4.82,2.94.32,1.56-1.16,2.06-2.63,1.88a3.52,3.52,0,0,1-2.33-1.78L19,26.34a5.2,5.2,0,0,0,1.08,1.48c2.31,2.34,8.12,2.22,9.16-1.34a4.8,4.8,0,0,0,.1-2.2Zm-12-9.66h-3c0,2.58,0,5.15,0,7.74a12.94,12.94,0,0,1-.18,3.61,1.7,1.7,0,0,1-2.09.64A2.55,2.55,0,0,1,11,25.56a1.07,1.07,0,0,0-.17-.26L8.41,26.8a4.65,4.65,0,0,0,1.77,2,5.85,5.85,0,0,0,4.27.55,3.78,3.78,0,0,0,2.41-1.88c.69-1.24.54-2.76.53-4.47,0-2.74,0-5.48,0-8.24Z"/></svg>