<svg id="Layer_1" data-name="Layer 1" xmlns="http://www.w3.org/2000/svg" viewBox="0 0 32 32"><defs><style>.cls-1{fill:#006595;}</style></defs><path class="cls-1" d="M28.62,9.1a14.39,14.39,0,0,1-5.39,19.33l4.39-12.7a13.41,13.41,0,0,0,1.1-5.15A11,11,0,0,0,28.62,9.1ZM18,9.24c.87,0,1.64-.14,1.64-.14a.6.6,0,0,0-.08-1.2s-2.34.18-3.84.18-3.81-.2-3.81-.2a.59.59,0,0,0-.09,1.18s.71.08,1.5.12l2.24,6.14-3.17,9.44L7.14,9.2c.87,0,1.65-.13,1.65-.13a.6.6,0,0,0-.09-1.2s-2.33.19-3.84.19L4,8A14.57,14.57,0,0,1,16,1.62a14.35,14.35,0,0,1,9.71,3.77h-.18a2.49,2.49,0,0,0-2.42,2.56,6.73,6.73,0,0,0,1.42,3.37,7.66,7.66,0,0,1,1.18,4,17.07,17.07,0,0,1-1.1,4.64L23.18,24.7,18,9.22ZM16,30.38a14.28,14.28,0,0,1-4.06-.58l4.31-12.55,4.42,12.12a2,2,0,0,0,.11.2,14.53,14.53,0,0,1-4.78.81ZM1.62,16a14.26,14.26,0,0,1,1.24-5.85L9.72,29A14.4,14.4,0,0,1,1.62,16ZM16,0A16,16,0,1,0,32,16,16,16,0,0,0,16,0Z"/></svg>