<svg id="Layer_1" data-name="Layer 1" xmlns="http://www.w3.org/2000/svg" viewBox="0 0 27.09 31.93"><defs><style>.cls-1{fill:#73b757;}</style></defs><path class="cls-1" d="M18,31.93a2.38,2.38,0,0,1-1.09-.49,1,1,0,0,1-.27-.64,2.13,2.13,0,0,1,.33-.94,2.67,2.67,0,0,0,.28-.62,4.61,4.61,0,0,1,.2-.55l.12-.28,0-1.91c0-1.06,0-2,.07-2.19A6.87,6.87,0,0,1,18,23l.12-.28-.17-.1a3.86,3.86,0,0,1-.77-.81,3.66,3.66,0,0,0-2.55-1.25c-.37,0-.74-.06-1.12-.08A4.77,4.77,0,0,1,10,19.24a3.81,3.81,0,0,1-1.1-2.45A7,7,0,0,0,8.13,14a3.32,3.32,0,0,0-.32-.42l-.15-.15-.34.21c-.18.12-.43.27-.56.34a10.45,10.45,0,0,0-1.19.76,24.51,24.51,0,0,0-2.51,2.08c-.25.25-.38.36-.44.35-.38-.06-.08-1.7.54-2.94a10.52,10.52,0,0,1,3.66-4.07,37.46,37.46,0,0,1,4.26-2.34,50.7,50.7,0,0,1,5.35-1.87,2.71,2.71,0,0,0,.64-.25,1.47,1.47,0,0,1,.9-.31.76.76,0,0,0,.57-.19.63.63,0,0,1,.72-.1l.2.07L19.71,5,20,4.8h.36a1.29,1.29,0,0,0,.52-.06c.15-.07.16-.08.2-.33a3.28,3.28,0,0,0,.05-1.14,12.45,12.45,0,0,1,0-2.44c.07-.35.13-.43.39-.56A2.77,2.77,0,0,1,22.85,0a2.1,2.1,0,0,1,1.57.42c.28.27.32.91.18,2.4a9.48,9.48,0,0,0-.08,1.66c0,.36,0,.7.05.74s0,.1.35.1a1.06,1.06,0,0,1,.63.17,1,1,0,0,1,.51.44s.05,0,.14,0a.36.36,0,0,1,.41.14c.07.09.11.11.27.11s.29,0,.47.31a.79.79,0,0,0,.33.27,2.27,2.27,0,0,1,.84.87,2.16,2.16,0,0,1,.13,1.54c0,.19,0,.19.06.37a1.82,1.82,0,0,1,.22,1.28l-.05.24.15.15c.78.78.66,2-.28,3.18a2,2,0,0,0-.27.42,3.06,3.06,0,0,1-.66,1.1l-.28.28h-.28a2.22,2.22,0,0,1-.92-.22c-.09-.05-.1-.05-.08,0,.06.23.22,1.17.27,1.68a9.61,9.61,0,0,1-.05,2.44,3.73,3.73,0,0,1-.4,1.05.47.47,0,0,0-.08.4,2.83,2.83,0,0,1-.16,1.09,3.64,3.64,0,0,0-.22.72c0,.17,0,.17.09.17s.23.08.23.26a8.21,8.21,0,0,1-.15.93,9.6,9.6,0,0,0-.24,2.53c0,1.21,0,1.2.27,1.38l.62.41a8.79,8.79,0,0,0,1.7.87c.87.34,1,.43,1,.72A.33.33,0,0,1,29,31c-.34.32-1,.39-2.32.25-.68-.06-1.38-.1-2.07-.1-1.82,0-2.08-.09-2.32-.54a1.49,1.49,0,0,1,.07-1.16,5.92,5.92,0,0,0,.22-.75,3.85,3.85,0,0,0-.25-2.13l-.25-.7a5,5,0,0,1-.23-2.28c0-.05.07-.06.2-.06l.15,0,.13-.27a2,2,0,0,1,.51-.65l.38-.38,0-.25a7.94,7.94,0,0,0-.37-1.36,1.23,1.23,0,0,0-.19.26,4.92,4.92,0,0,1-1,1.06c-.13.09-.23.19-.23.22a1.56,1.56,0,0,1-.27.61c-.14.18-.15.22-.13.38a6.1,6.1,0,0,1-.14,1.44,4.19,4.19,0,0,1-.34.89,10.36,10.36,0,0,0-.7,1.72,6.88,6.88,0,0,0-.09.89,5,5,0,0,1-.08.78.48.48,0,0,0,0,.32,2.2,2.2,0,0,1,0,.55,2.94,2.94,0,0,0,.09.75,2,2,0,0,1,.1,1.06.31.31,0,0,1-.22.24,3.75,3.75,0,0,1-1.68.17Zm1.27-.43c.18-.05.34-.2.34-.34a1.41,1.41,0,0,0-.12-.41,7.85,7.85,0,0,1-.34-1.26c0-.06,0-.07.11,0l.12.06V29.4a2.59,2.59,0,0,0-.09-.4c-.1-.3-.11-.3-.74-.34l-.43,0-.15.15a1.28,1.28,0,0,0-.23.29.53.53,0,0,0-.05.39.62.62,0,0,0,.23,0,.71.71,0,0,1,.21,0l-.26.19c-.63.47-.85.76-.85,1.12s.36.68.92.77a5.46,5.46,0,0,0,1.33,0Zm8.47-.61c.16-.19.14-.38-.06-.6a1.85,1.85,0,0,0-.39-.3,3.37,3.37,0,0,1-.44-.26c-.11-.08-.48-.29-.81-.48a8,8,0,0,1-.7-.41l-.1-.07V27.34c0-1.41,0-1.43-.08-1.41a7,7,0,0,1-1.73.13h-.83l.12.29A5.71,5.71,0,0,1,23,28.48a1.61,1.61,0,0,1-.1.66c0,.11-.08.22-.11.33s0,.08.25.14a4.06,4.06,0,0,0,.52.11l.24,0,0,.24a1.36,1.36,0,0,0,.07.64c.05.05.2.07.93.11a15.48,15.48,0,0,1,1.61.15c.4.06.84.11,1,.11s.24,0,.33-.11Zm-8.34-2.44a2.16,2.16,0,0,0,.07-.63A4.19,4.19,0,0,1,20,25.7a5.74,5.74,0,0,0,.57-2.23v-.34l-.15.14c-.3.3-.09-.17.27-.59a1.41,1.41,0,0,0,.4-.79c0-.11.07-.17.24-.31a4.44,4.44,0,0,0,1.48-1.94c.07-.19.26-.83.41-1.43a7.82,7.82,0,0,1,.59-1.77c.06-.08.08-.1.07,0a6.21,6.21,0,0,0-.18.85c0,.25-.12.75-.17,1.1a6.34,6.34,0,0,1-.35,1.53l-.09.24.25.64a4.88,4.88,0,0,1,.4,1.61l0,.26-.21,0a1,1,0,0,0-.66.41c-.18.26-.28.47-.23.51a2.28,2.28,0,0,0,.57.11,5.41,5.41,0,0,0,1.22,0,6.48,6.48,0,0,0,.77-.07c.06,0,.12-.13.21-.43a3.43,3.43,0,0,0,.23-1.4l0-.42.11-.14a3.44,3.44,0,0,0,.53-1.59,15,15,0,0,0-.42-4.08,7.31,7.31,0,0,1-.23-1.45v-.28l-.25,0a10.38,10.38,0,0,1-2.71-.07,14.11,14.11,0,0,1-1.5-.44L21,13.3l0,.18c0,.1,0,.2-.06.3s0,.14.18.32.31.37.31.54-.06.19-.35.49a4.62,4.62,0,0,1-.69.6L20,16l-.15.5a9.08,9.08,0,0,0-.27,4.74l.08.3-.17.21a5.16,5.16,0,0,0-1.05,1.72c0,.06-.06.28-.11.49A11.17,11.17,0,0,0,18.05,26c0,.69-.08,1.37-.14,2.06l0,.2.26.08a5,5,0,0,0,.49.12,2.78,2.78,0,0,0,.73,0Zm5.06-2.87a2.34,2.34,0,0,0,.85-.15.43.43,0,0,0,.08-.24l0-.2-.32.08a6.59,6.59,0,0,1-.76.1,12.67,12.67,0,0,1-1.85-.05c-.2,0-.2,0-.14.23s.06.21.59.25a11.58,11.58,0,0,0,1.53,0Zm-.34-.9a6.6,6.6,0,0,0,1.33-.23s.07-.1.09-.19l.05-.28,0-.13-.13,0a8.14,8.14,0,0,1-1.89.16A3.05,3.05,0,0,1,22.38,24a1.27,1.27,0,0,0-.28-.06,1.38,1.38,0,0,0,0,.53c0,.12.05.14.17.18a5.93,5.93,0,0,0,1.82.07ZM14.42,20a12.07,12.07,0,0,0,4.5-2.93c.47-.47.52-.53.59-.74l.08-.26s-.07-.06-.18-.09c-.29-.06-.51-.23-.51-.38s0-.18-.2-.34a1,1,0,0,1-.33-.66l0-.21-.29-.21a13.56,13.56,0,0,0-1.37-.76q-.7-.35-1.38-.75a2.73,2.73,0,0,1-1.07-1.26c0-.1-.08-.18-.1-.18s-1.21,1.13-1.71,1.66A15.08,15.08,0,0,0,9.8,16.35c-.14.26-.28.57-.33.68l-.07.21.09.35a6.4,6.4,0,0,0,.27.68,2.81,2.81,0,0,0,1.37,1.35,4.64,4.64,0,0,0,2.33.45,3,3,0,0,0,1-.1ZM3.9,15.41a24,24,0,0,1,3.56-2.5c1-.58,4.71-2.46,6.44-3.22l.62-.29a2.06,2.06,0,0,0,.2-.49c.37-1.16.55-1.39,1.21-1.54.09,0,.11,0,.11-.13a1.89,1.89,0,0,1,.19-.66c.07-.12.07-.12,0-.11l-.48.15a31.74,31.74,0,0,0-8.35,3.65c-2.56,1.63-4,3.57-4.46,5.91l0,.17L3.23,16c.17-.17.47-.45.67-.62Zm23.56.44a2.43,2.43,0,0,0,.8-1.2,1,1,0,0,1,.25-.45,3.08,3.08,0,0,0,.7-1.74c0-.82-.46-1.14-1.15-.79-.09,0-.16.07-.17.06s.16-.22.39-.37.37-.32.37-.75a1.67,1.67,0,0,0-.3-1c-.09-.14-.13-.23-.11-.29L28.33,9a1.81,1.81,0,0,0-.12-1.33A1.46,1.46,0,0,0,27,6.85l-.3,0,.18.2a2.31,2.31,0,0,1,.67,1.89c-.05.32-.1.38-.4.5L27,9.49l0,.24a2.1,2.1,0,0,1-.28,1.2,2.46,2.46,0,0,0-.21.53,1.32,1.32,0,0,0,.64.33l.27.06-.17.06c-.22.07-.26.16-.26.52a1.21,1.21,0,0,0,.28.83,1.17,1.17,0,0,1,.2.41c0,.14,0,.15-.11.2a1.85,1.85,0,0,1-.42.06c-.49,0-.52.05-.74.26s-.2.2-.2.4a3.18,3.18,0,0,0,.17.95,2.57,2.57,0,0,0,.78.37.75.75,0,0,0,.49-.05Zm-7.21-.39a3.37,3.37,0,0,0,.71-.71c.09-.13.09-.16.05-.27a2.58,2.58,0,0,0-.82-.72,2.19,2.19,0,0,0-.55-.17l-.33,0-.21-.25a6.44,6.44,0,0,1-1-1.72,4,4,0,0,0-.95-1.44,1.84,1.84,0,0,1-.27-.29l.44.22c.38.21.43.22.6.2.62-.08,1.17-.79,1.37-1.79a2,2,0,0,1,.29-.74l.53.35c.71.51.87.59,1.27.6a2.93,2.93,0,0,0,.9-.12,8.52,8.52,0,0,1,2.79-.26,5.25,5.25,0,0,1,1.34.41c.4.19.48.2.61.08s.11-.11.11-.46a2.38,2.38,0,0,0-.48-1.4,4,4,0,0,0-1-.67L25.26,6c-.19-.12-.41-.1-1,0a2.49,2.49,0,0,1-1.66,0A2.38,2.38,0,0,0,21.23,6a5.79,5.79,0,0,1-1.51-.06l-.43-.13a2.2,2.2,0,0,0-1.1,0,2,2,0,0,0-1.62,1.16c-.12.29-.1.44.05.53a1.44,1.44,0,0,1,.56.72A.9.9,0,0,1,17,8a.91.91,0,0,0-.67-.34.82.82,0,0,0-.73.49,5.22,5.22,0,0,0-.18.56,3,3,0,0,1-.55,1.19.84.84,0,0,0-.19.87c.22,1,.6,1.34,2.18,2.24a15.58,15.58,0,0,1,1.58,1c.24.17.24.18.22.32a1,1,0,0,0,.54.93.29.29,0,0,1,.16.19c0,.09.27.22.46.22s.19,0,.42-.22Zm6.42-1.75c.61,0,.64,0,.32-.4a1,1,0,0,1-.31-1.06l.05-.14-.21-.1-.22-.1c0,.14-.08.28-.11.42A10.29,10.29,0,0,0,26,13.82s.05,0,.14,0,.19-.08.51-.07Zm-2,0c.36,0,.74,0,.84-.07l.18,0,0-.6a5,5,0,0,1,.52-2.17,2.71,2.71,0,0,0,.32-1.45c0-.16,0-.17-.25-.26A6,6,0,0,0,25,8.77,9.74,9.74,0,0,0,23,8.83L22.2,9a1.78,1.78,0,0,1-1.3-.07,3.17,3.17,0,0,1-.95-.6c-.2-.19-.22-.2-.28-.13s-.06.18-.07.49a1.79,1.79,0,0,1-.3,1,1.51,1.51,0,0,0-.11.22,3.53,3.53,0,0,0,.35.39c.66.7,1,.87,1.52.84.17,0,.29,0,.29,0a2.2,2.2,0,0,1-.48.38c-.07,0-.08.07-.07.15l.08.54c.05.32.08.46.13.5a7.64,7.64,0,0,0,1.18.61,4.05,4.05,0,0,0,1.23.33,6.21,6.21,0,0,0,1.23,0Zm-4.31-.58a5.36,5.36,0,0,0-.09-.66c-.09-.48-.13-.65-.19-.7l-.42-.3a8.17,8.17,0,0,1-.72-.6l-.36-.36-.19.1-.2.11a.68.68,0,0,0,.08.24c.06.12.17.43.26.68a4.38,4.38,0,0,0,.82,1.53l.16.21.31.05.39.08c.07,0,.08,0,.1-.15a1.89,1.89,0,0,1,.05-.23Zm6.6-6.48c.26,0,.31-.06.2-.18a.36.36,0,0,0-.38,0c-.09,0-.11,0-.25-.12s-.16-.17-.34-.15-.19,0-.21,0a1.22,1.22,0,0,0-.24-.3,1.18,1.18,0,0,0-.43-.31.83.83,0,0,0-.82.06c-.89.49-.85.48-1.71.26a7.08,7.08,0,0,1-1.6-.54A2,2,0,0,0,20.37,5a.59.59,0,0,0-.55.18l-.11.09.1.17c.14.24.12.25-.08.08a1.26,1.26,0,0,0-.65-.32,1.09,1.09,0,0,0-.51.23s.09,0,.24,0a2.3,2.3,0,0,1,.5.13,2.38,2.38,0,0,0,.88.24A3.39,3.39,0,0,0,21.3,5.8s.15,0,.39,0a4.91,4.91,0,0,1,1.2.26,2.13,2.13,0,0,0,1.27,0l.67-.15c.21,0,.25,0,.59.14a4.18,4.18,0,0,1,1,.54c.15.13.17.13.55.1Zm-3-.91.32-.16V5.22l0-.66,0-.33-.32.25a1.89,1.89,0,0,1-.45.27A6.75,6.75,0,0,1,22,4.69a2.66,2.66,0,0,1-.4-.34l-.29-.3v.18a2.16,2.16,0,0,1,0,.35c0,.19,0,.19.17.45a1.75,1.75,0,0,1,.2.28,6.34,6.34,0,0,0,1.85.57A1.16,1.16,0,0,0,24,5.71Zm-.61-1.18c.38-.07.56-.34.7-1a9.4,9.4,0,0,0,.15-2.4C24.15.66,23.65.46,22.7.49c-.6,0-.84.08-1,.25s-.13.11-.19.61a6.34,6.34,0,0,0,.33,2.8.62.62,0,0,0,.48.38,4.87,4.87,0,0,0,1.08,0Z" transform="translate(-2.45 -0.03)"/></svg>