<svg id="Layer_1" data-name="Layer 1" xmlns="http://www.w3.org/2000/svg" viewBox="0 0 53.76 53.76"><defs><style>.cls-1{fill:#504394;}.cls-2{fill:#fff;}</style></defs><circle class="cls-1" cx="26.88" cy="26.88" r="26.88"/><path class="cls-2" d="M36.2,16.52a6.4,6.4,0,0,1,1.15,3.84,5.64,5.64,0,0,1-1.16,3.71,6.11,6.11,0,0,1-1.93,1.44,5.56,5.56,0,0,1,2.91,2.22,6.6,6.6,0,0,1,1,3.69,7.39,7.39,0,0,1-1.13,4,7,7,0,0,1-1.78,2,6.86,6.86,0,0,1-2.85,1.26,17.26,17.26,0,0,1-3.56.35H17.49V13.84H29.67C32.74,13.88,34.92,14.78,36.2,16.52ZM22.52,18.21v5.55h6.12a5.05,5.05,0,0,0,2.67-.62,2.38,2.38,0,0,0,1-2.21A2.26,2.26,0,0,0,31,18.6a9.57,9.57,0,0,0-3-.39Zm0,9.72v6.72h6.12a6.05,6.05,0,0,0,2.55-.44,3.18,3.18,0,0,0,1.65-3.15,2.7,2.7,0,0,0-1.6-2.7,6.62,6.62,0,0,0-2.52-.43Z"/></svg>